<svg width="64" height="64" viewBox="0 0 64 64" fill="none" xmlns="http://www.w3.org/2000/svg">
<path fill-rule="evenodd" clip-rule="evenodd" d="M20.1479 58.5699C20.3053 58.4538 20.4603 58.3347 20.6112 58.2104C20.9327 57.9457 21.2376 57.66 21.5193 57.3523C21.6505 57.2091 21.7767 57.0613 21.8972 56.9087C21.9936 56.7865 22.0861 56.661 22.1777 56.5349C22.3331 56.3208 22.4835 56.1028 22.6285 55.8813C23.0347 55.2614 23.4001 54.6141 23.7249 53.9468C23.8811 53.6261 24.0271 53.3007 24.1651 52.9716C24.1924 52.906 24.2195 52.8401 24.2461 52.7742C24.2551 52.7522 24.2727 52.7082 24.2727 52.7082C24.5319 52.9771 24.7968 53.2402 25.0683 53.4964C25.7659 54.1547 26.5024 54.7703 27.2683 55.3452C27.5524 55.5586 27.8405 55.7662 28.1325 55.9684C28.2919 56.0788 28.4519 56.1881 28.6143 56.2938C28.8325 56.436 29.0551 56.5715 29.2809 56.7009C29.7817 56.988 30.2988 57.2454 30.8256 57.4796C31.0433 57.5764 31.2631 57.6685 31.4837 57.7584C31.5583 57.7882 31.6329 57.8179 31.7077 57.8474C30.6172 60.2706 28.7264 62.3608 26.7991 63.9999C24.2703 62.4075 21.8595 60.5777 20.1479 58.5699ZM5.53707 47.6534C5.68827 47.7121 5.84027 47.7676 5.99413 47.8181C6.31773 47.924 6.64813 48.0099 6.9832 48.0702C7.1372 48.098 7.29213 48.1204 7.44773 48.137C7.59013 48.1521 7.73293 48.162 7.87587 48.1702C8.066 48.1813 8.2564 48.1883 8.4468 48.1913C9.0512 48.201 9.65627 48.1702 10.2565 48.0988C10.5172 48.0678 10.7765 48.0281 11.0351 47.9827C11.1455 47.9625 11.1453 47.9625 11.2556 47.9413C11.1993 48.2299 11.1479 48.5191 11.104 48.8099C11.008 49.4474 10.9444 50.0899 10.9123 50.7339C10.8947 51.0856 10.8865 51.4378 10.8877 51.79C10.8885 52.0636 10.8947 52.3369 10.9145 52.61C10.9577 53.2037 11.0559 53.791 11.1892 54.3705C11.2083 54.4512 11.2279 54.5318 11.248 54.6124C11.4161 54.5892 11.5837 54.563 11.7505 54.5311C12.1041 54.4635 12.4537 54.3739 12.7949 54.2575C12.9532 54.2037 13.1097 54.144 13.2637 54.0783C13.3869 54.0256 13.5087 53.9689 13.6297 53.9116C13.7984 53.8315 13.9656 53.7484 14.1311 53.662C14.9012 53.2602 15.634 52.7891 16.3253 52.2606C16.4072 52.1976 16.4885 52.1339 16.5693 52.0695C16.6499 52.0047 16.7299 51.9394 16.8095 51.8734C16.9071 52.228 17.0116 52.5805 17.1267 52.9297C17.3807 53.7006 17.6793 54.4563 18.0188 55.1928C18.1324 55.4394 18.2507 55.6838 18.3735 55.9261C18.4479 56.073 18.5232 56.2197 18.6023 56.3641C18.7039 56.5501 18.8109 56.7332 18.9229 56.913C19.2363 57.416 19.5879 57.8927 19.9629 58.3501C20.0241 58.4237 20.0859 58.4971 20.1479 58.5699C18.3833 59.8508 16.1969 60.6028 14.1676 61.0288C12.9127 58.998 11.7945 56.7718 11.248 54.6124C10.0855 54.7638 8.86413 54.6977 7.67787 54.5001C6.95507 54.3814 6.24067 54.215 5.55747 54.02C5.2788 51.9258 5.18053 49.6658 5.53707 47.6534ZM31.7077 57.8474C31.8035 57.6315 31.8949 57.4135 31.9784 57.1924C32.1564 56.7216 32.3029 56.2383 32.4108 55.7461C32.4647 55.5006 32.5089 55.253 32.5428 55.0038C32.5733 54.7794 32.5947 54.5535 32.6137 54.3277C32.6377 54.0444 32.6556 53.7607 32.6673 53.4765C32.7036 52.6069 32.6831 51.7346 32.6051 50.8675C32.5704 50.4817 32.5236 50.0973 32.4669 49.7142C32.4504 49.6056 32.4331 49.4971 32.4152 49.3887L32.508 49.4141L32.6012 49.4393C33.0465 49.5583 33.494 49.6684 33.9439 49.7678C35.0788 50.019 36.2267 50.2083 37.3804 50.3445C37.7893 50.3928 38.1989 50.4344 38.6091 50.4696C38.88 50.4928 39.1512 50.5145 39.4227 50.5299C39.7611 50.5491 40.1 50.5591 40.4388 50.5608C41.2184 50.5649 41.998 50.5256 42.7741 50.453C43.1381 50.4188 43.5011 50.3765 43.8637 50.3295C44.4437 53.584 43.8639 57.0463 42.8859 60.0936C41.2808 59.9588 39.6953 59.7727 38.1703 59.5215C35.8355 59.1391 33.6344 58.6 31.7077 57.8474ZM17.3161 51.4262C17.6209 51.1444 17.9136 50.8493 18.1965 50.5446C18.5484 50.1659 18.8855 49.7727 19.2064 49.3667C19.4608 49.0446 19.7055 48.7143 19.9344 48.3731C20.1472 48.0558 20.3471 47.729 20.5135 47.3841C20.5308 47.3468 20.5479 47.3097 20.5644 47.2722C20.7017 47.6311 20.8708 47.9768 21.0504 48.3157C21.2735 48.7369 21.5152 49.1479 21.7695 49.5504C22.0989 50.0718 22.4504 50.5792 22.8251 51.0684C23.1212 51.4549 23.4321 51.8299 23.7624 52.1869L23.6292 52.5186L23.6033 52.582C23.4553 52.9424 23.2973 53.2984 23.1269 53.6484C22.8247 54.2693 22.4861 54.8719 22.1107 55.4503C21.9599 55.6828 21.8032 55.9113 21.6405 56.1354C21.5095 56.3157 21.3757 56.4939 21.2321 56.6642C20.9676 56.978 20.6765 57.2665 20.3685 57.5363C20.3291 57.5703 20.2897 57.6043 20.2496 57.6377C19.9055 57.2016 19.5893 56.7409 19.3104 56.2593C19.1888 56.0494 19.0763 55.8345 18.9667 55.6181C18.8369 55.3622 18.7125 55.1037 18.5932 54.8428C18.2956 54.1911 18.0308 53.524 17.8019 52.8444C17.688 52.5064 17.5841 52.1652 17.4873 51.8218L17.4232 51.5887L17.3161 51.4262ZM24.5415 52.0217L24.5448 52.0123C24.732 51.4786 24.8936 50.9357 25.0283 50.3859C25.2499 49.4815 25.3985 48.5583 25.4652 47.6287C25.4941 47.2258 25.5063 46.8223 25.5047 46.4183C25.504 46.3518 25.5031 46.2851 25.502 46.2184C25.9235 46.5016 26.3513 46.7748 26.7881 47.0331C27.4577 47.4292 28.1468 47.7916 28.8533 48.1151C29.5816 48.4487 30.328 48.7406 31.0876 48.9921C31.2927 49.06 31.4988 49.1247 31.7057 49.1866L31.7709 49.5798L31.7835 49.6584C31.8372 50.0005 31.8827 50.3439 31.9181 50.6885C32.0093 51.5775 32.0379 52.4731 32.0045 53.3661C31.9923 53.6953 31.9715 54.0244 31.9424 54.3526C31.9176 54.6322 31.8872 54.9111 31.8401 55.1878C31.7368 55.7972 31.5684 56.3959 31.3477 56.9722L31.3035 56.9533C31.0949 56.8629 30.8875 56.77 30.6821 56.6726C30.2533 56.4692 29.8327 56.2482 29.4243 56.0055C29.2725 55.9155 29.1227 55.8225 28.9748 55.7262C28.7933 55.608 28.6147 55.4853 28.4369 55.3614C28.0835 55.1149 27.7356 54.8601 27.3941 54.5969C26.5192 53.9221 25.6871 53.1912 24.9107 52.4025C24.7869 52.276 24.664 52.149 24.5415 52.0217ZM11.9661 47.7835C12.6348 47.613 13.2896 47.3853 13.9261 47.1179C14.2489 46.9823 14.5673 46.8355 14.8797 46.6767C15.3051 46.4604 15.7187 46.2212 16.1123 45.9499C16.1708 45.9086 16.1707 45.9088 16.2288 45.8669C16.1817 46.2561 16.1663 46.6482 16.1657 47.04C16.1651 47.4891 16.1841 47.9383 16.2171 48.3861C16.2552 48.904 16.3123 49.4204 16.3899 49.9337C16.4519 50.3443 16.5275 50.7526 16.6211 51.1568L16.3399 51.3903C16.0804 51.6041 15.8147 51.8098 15.5416 52.0055C15.0271 52.3744 14.4888 52.7096 13.9308 53.0067C13.7384 53.1091 13.5439 53.207 13.3471 53.3003C13.1753 53.3816 13.0027 53.4605 12.8256 53.5293C12.4793 53.6637 12.1205 53.7678 11.7569 53.8419L11.7555 53.8345C11.6681 53.3892 11.6036 52.9399 11.5744 52.4866C11.5593 52.2539 11.5551 52.0208 11.5543 51.7877C11.5535 51.5322 11.5577 51.2765 11.5671 51.0211C11.5885 50.4377 11.6365 49.8553 11.7119 49.2764C11.7488 48.9935 11.7931 48.7118 11.8421 48.4307C11.8565 48.3514 11.8712 48.2721 11.8861 48.1928L11.9661 47.7835ZM20.9645 46.4498C21.5376 45.1657 21.8951 43.8306 22.0065 42.5062C22.6883 43.6664 23.6412 44.7436 24.8264 45.7027L24.8371 46.3277C24.8388 46.4873 24.8388 46.647 24.8357 46.8065C24.8281 47.1947 24.8051 47.5826 24.7673 47.9691C24.6835 48.8296 24.5272 49.6825 24.3063 50.5178C24.2212 50.8396 24.1259 51.1584 24.0224 51.4747L23.9955 51.4439C23.8973 51.3305 23.8003 51.2164 23.7052 51.1006C23.4405 50.7782 23.1883 50.4454 22.9465 50.1051C22.6721 49.7188 22.4112 49.3227 22.1641 48.9179C21.9649 48.5915 21.7747 48.2593 21.5976 47.92C21.4548 47.6465 21.3203 47.3684 21.2063 47.0813L20.9645 46.4498ZM16.9665 45.3208C17.968 44.521 18.8312 43.5769 19.5115 42.5148C19.5207 43.7926 19.7644 45.0978 20.2215 46.3938L19.9445 47.0222L19.9348 47.0439C19.8143 47.3035 19.6696 47.5505 19.5157 47.7911C19.3455 48.0575 19.1635 48.316 18.9747 48.5691C18.7021 48.9342 18.4151 49.2882 18.1161 49.6315C17.8188 49.9731 17.5096 50.3044 17.1873 50.6221L17.1851 50.6113C17.0247 49.7963 16.9213 48.9704 16.8685 48.1411C16.8471 47.8035 16.834 47.4652 16.8325 47.1268C16.8311 46.7959 16.8408 46.4649 16.8701 46.1351C16.8763 46.0732 16.8761 46.0733 16.8829 46.0114L16.9665 45.3208ZM51.5856 35.7196C54.7873 38.3972 56.9983 42.1399 58.488 45.8953C53.4423 48.0402 48.3661 49.7372 43.8637 50.3295L43.8529 50.2689C43.7928 49.9464 43.7225 49.6261 43.6392 49.3089C43.4731 48.6776 43.2577 48.0591 42.9891 47.465C42.8967 47.2603 42.7979 47.0587 42.6928 46.8602C42.5904 46.667 42.4823 46.4769 42.3725 46.2878C42.134 45.8766 41.8831 45.4731 41.62 45.0776C41.0853 44.2739 40.5013 43.5038 39.8725 42.7733C39.5749 42.4275 39.2668 42.0913 38.9504 41.7631C38.8829 41.6936 38.8151 41.6245 38.7469 41.5555C39.2896 41.4138 39.8297 41.2621 40.3665 41.0989C41.5953 40.7254 42.8075 40.2966 44.0013 39.8212C44.6373 39.5678 45.2683 39.3011 45.8939 39.0221C46.1891 38.8905 46.4837 38.757 46.7759 38.6181C47.0721 38.4773 47.3656 38.3306 47.6564 38.1786C48.8856 37.536 50.0632 36.7974 51.1981 35.9972C51.3276 35.9054 51.4568 35.8128 51.5856 35.7196ZM37.9892 41.7432L38.3428 42.1009L38.4087 42.1679L38.4743 42.2356C38.7817 42.5543 39.0809 42.8808 39.37 43.2166C40.0232 43.9757 40.6269 44.7787 41.1752 45.6187C41.3915 45.9501 41.5991 46.2871 41.7977 46.6296C41.9031 46.8111 42.0071 46.9937 42.1053 47.1793C42.1859 47.3313 42.2624 47.4855 42.3351 47.6415C42.6487 48.3152 42.8875 49.0225 43.0609 49.746L43.0147 49.751C42.7151 49.7815 42.4153 49.8089 42.1149 49.8298C41.4405 49.877 40.7641 49.8965 40.0881 49.8809C39.8556 49.8757 39.6232 49.8661 39.3909 49.8521C39.1489 49.8373 38.9071 49.8179 38.6655 49.7971C38.1188 49.7502 37.5729 49.6916 37.0288 49.6208C36.0088 49.4883 34.994 49.3125 33.99 49.0871C33.5821 48.9955 33.1764 48.8951 32.7725 48.7871C32.6195 48.7456 32.4665 48.7039 32.3137 48.6619C32.2224 48.1571 32.0911 47.6596 31.9389 47.1703C31.6937 46.3811 31.3924 45.6095 31.0548 44.8563C30.8493 44.3982 30.63 43.9459 30.3919 43.5042C30.3065 43.3462 30.2187 43.1893 30.1267 43.0352C30.0396 42.8891 29.9493 42.7444 29.8476 42.6084C29.8304 42.586 29.8129 42.5638 29.7948 42.5421L29.8881 42.5483L29.9819 42.5543C30.4327 42.5804 30.8841 42.5945 31.3357 42.5933C32.1685 42.5908 33.0012 42.5422 33.8296 42.4577C34.9373 42.3446 36.0384 42.1663 37.1281 41.9365C37.4161 41.8757 37.7031 41.8111 37.9892 41.7432ZM25.4615 45.3817C25.3419 43.8499 24.9765 42.4131 24.366 41.1532C25.6333 41.8049 27.1409 42.2429 28.8439 42.4511L29.2952 42.9892L29.3016 42.9973C29.3099 43.0077 29.3099 43.0077 29.3179 43.0182C29.3907 43.1156 29.4559 43.2189 29.5192 43.323C29.6037 43.4617 29.684 43.6031 29.762 43.7456C29.9705 44.1261 30.1632 44.5158 30.3452 44.9099C30.5913 45.4432 30.8176 45.9862 31.0199 46.5382C31.2481 47.1617 31.4463 47.7971 31.5903 48.4461L31.5235 48.4249C31.1841 48.3157 30.8469 48.2002 30.5128 48.0752C29.9737 47.8737 29.4428 47.6499 28.9217 47.4043C28.3423 47.1313 27.7753 46.8314 27.2219 46.5078C26.9277 46.3357 26.6379 46.1566 26.3508 45.9728C26.2545 45.9105 26.1587 45.8479 26.0631 45.7849C25.8621 45.6511 25.6616 45.5165 25.4615 45.3817ZM3.20813 38.7405C3.57627 39.1687 3.97293 39.5711 4.4108 39.9261C4.53893 40.03 4.67027 40.1298 4.80493 40.2249C4.90773 40.2974 5.01253 40.3671 5.11787 40.4358C5.28213 40.5429 5.44853 40.6467 5.61693 40.7473C6.1112 41.0421 6.62267 41.3073 7.14853 41.5398C7.4224 41.6608 7.7004 41.7716 7.98107 41.8756C8.0856 41.9134 8.0856 41.9134 8.1904 41.9502C7.9992 42.2076 7.81387 42.4692 7.6368 42.7369C7.27573 43.2827 6.9464 43.8501 6.64907 44.434C6.53547 44.6571 6.42653 44.8827 6.32227 45.1104C6.26693 45.2312 6.2124 45.3525 6.1612 45.4754C6.10427 45.6118 6.05093 45.7499 6.00093 45.8892C5.82133 46.3894 5.68653 46.9042 5.58067 47.4253C5.56573 47.5011 5.5512 47.5771 5.53707 47.6534C3.83613 46.9933 2.1992 45.7687 0.790133 44.4618C1.32213 42.4816 2.09147 40.4015 3.20813 38.7405ZM8.8476 42.1885C9.0584 42.253 9.27213 42.3081 9.48747 42.3557C9.80507 42.426 10.126 42.4804 10.4483 42.5228C10.8204 42.5717 11.1945 42.6043 11.5692 42.6231C12.0229 42.6458 12.4776 42.6475 12.9315 42.6258C12.9951 42.6224 13.0587 42.6185 13.1223 42.6143C13.1813 42.61 13.2404 42.6053 13.2995 42.6002L13.2551 42.6732C13.1069 42.9195 12.9651 43.1695 12.8311 43.4241C12.5152 44.0246 12.2403 44.647 12.0044 45.284C11.8141 45.7977 11.6492 46.3211 11.5088 46.8511C11.4759 46.975 11.4445 47.0992 11.4145 47.2237L11.0237 47.2989C10.7433 47.3505 10.4619 47.3948 10.1787 47.4285C9.60773 47.4964 9.03213 47.5257 8.45733 47.5165C8.27613 47.5137 8.09493 47.5069 7.914 47.4964C7.74173 47.4864 7.5696 47.4737 7.3984 47.4519C7.02947 47.4046 6.6644 47.3223 6.3092 47.2109L6.3108 47.204C6.41347 46.7703 6.53853 46.3425 6.69947 45.9269C6.78373 45.709 6.87933 45.4959 6.97787 45.2842C7.0796 45.0661 7.18573 44.8503 7.29627 44.6367C7.54973 44.1476 7.82667 43.6708 8.12693 43.2096C8.25333 43.0155 8.3844 42.8246 8.5184 42.6358C8.5856 42.5425 8.5856 42.5427 8.65347 42.4498L8.8476 42.1885ZM14.15 42.4881C15.3275 42.285 16.4596 41.8848 17.494 41.2896C16.9264 42.4074 16.5419 43.6479 16.3392 44.96L15.7879 45.3562C15.2919 45.7052 14.7584 45.997 14.2109 46.2543C13.5451 46.5672 12.8556 46.828 12.1504 47.0345L12.1527 47.026C12.3408 46.3233 12.5699 45.6325 12.8483 44.9609C13.0309 44.5204 13.234 44.0884 13.4583 43.6681C13.5616 43.4745 13.6697 43.2841 13.7816 43.0955C13.9035 42.8925 14.0265 42.6902 14.15 42.4881ZM12.972 38.5055C14.0812 38.9472 15.2328 39.1784 16.3821 39.1728C15.3963 39.8927 14.5167 40.8149 13.7695 41.8818L13.1872 41.9325L13.1324 41.9369C12.8033 41.9612 12.4732 41.9693 12.1432 41.9656C11.8 41.9618 11.4569 41.9454 11.1151 41.9162C10.7539 41.8854 10.3936 41.8404 10.0365 41.7772C9.79147 41.7337 9.5472 41.6826 9.30653 41.6182L9.31387 41.6094C9.44267 41.4573 9.5736 41.307 9.70773 41.1598C10.0276 40.8088 10.3639 40.473 10.7161 40.1555C11.0389 39.8645 11.3749 39.5888 11.7239 39.3307C11.8949 39.2042 12.0693 39.0827 12.246 38.9646C12.312 38.9212 12.3781 38.8781 12.4445 38.8356C12.6199 38.7248 12.7959 38.615 12.972 38.5055ZM31.0475 37.335L31.7557 37.6187C31.9737 37.7078 32.1903 37.7999 32.4048 37.8972C32.8801 38.1126 33.346 38.3494 33.8012 38.6054C34.7149 39.1192 35.5863 39.7096 36.4085 40.3625C36.7433 40.6281 37.0692 40.9047 37.388 41.1898L37.3543 41.1973C36.0253 41.4904 34.6807 41.7113 33.3249 41.8274C32.6629 41.8841 31.9984 41.9165 31.3339 41.9184C30.9879 41.9193 30.642 41.9108 30.2964 41.8953C30.2048 41.8907 30.1131 41.8858 30.0215 41.8806C29.7785 41.8653 29.5356 41.8493 29.2928 41.8328C28.3137 40.5338 27.1681 39.479 25.9101 38.7307C27.5023 38.5937 29.2367 38.1246 31.0475 37.335ZM8.44533 35.3077L8.4668 35.331C8.84907 35.7393 9.25307 36.1269 9.6788 36.4885C10.1288 36.8709 10.6031 37.2243 11.1004 37.5411C11.3297 37.6873 11.5641 37.8247 11.8025 37.9552C11.8733 37.9934 11.9444 38.0311 12.0159 38.0682C12.0871 38.1047 12.1585 38.1406 12.2304 38.1761L12.16 38.2198C11.9245 38.3685 11.6931 38.5234 11.4669 38.6863C10.9344 39.0698 10.4297 39.4927 9.95467 39.947C9.57187 40.3131 9.20827 40.6995 8.8644 41.1032C8.784 41.1976 8.70493 41.293 8.6268 41.3893L8.30707 41.2768C8.03973 41.1803 7.77493 41.0772 7.51387 40.9643C7.012 40.7474 6.5236 40.4991 6.0512 40.2225C5.85773 40.1091 5.66693 39.991 5.47893 39.8684C5.30893 39.7575 5.1416 39.6432 4.98027 39.5196C4.6988 39.3041 4.4356 39.0663 4.1852 38.8148C4.1448 38.7736 4.10467 38.7323 4.06493 38.6906C4.32227 38.3482 4.60107 38.0221 4.90693 37.7231C5.0728 37.5608 5.2476 37.4087 5.42547 37.2602C5.6224 37.0958 5.82347 36.9365 6.02853 36.7825C6.43107 36.4803 6.84853 36.1985 7.27947 35.9395C7.50747 35.8024 7.73933 35.6727 7.97387 35.5477C8.07413 35.4954 8.074 35.4954 8.17467 35.4438L8.44533 35.3077ZM39.4879 31.7054L40.1324 31.8079L40.2432 31.8258C40.7657 31.9127 41.2861 32.0115 41.8039 32.1245C43.0255 32.391 44.2313 32.731 45.414 33.1398C45.8699 33.2975 46.3224 33.4654 46.7711 33.6435C46.9896 33.7301 47.2079 33.8182 47.4237 33.9119C47.624 33.9987 47.8223 34.0901 48.0184 34.1859C48.5383 34.44 49.0428 34.7254 49.5301 35.0386C49.7732 35.1949 50.0116 35.3585 50.2463 35.5275C50.3196 35.5809 50.3927 35.6347 50.4653 35.6889L50.4349 35.7099L50.3585 35.7622C49.3652 36.4391 48.3388 37.0667 47.2727 37.6195C47.0148 37.7532 46.7548 37.8826 46.4925 38.0072C46.2052 38.1437 45.9155 38.275 45.6251 38.4046C45.0885 38.6438 44.548 38.8739 44.0036 39.0942C42.9739 39.5109 41.9301 39.8925 40.8736 40.2336C40.3381 40.4063 39.7993 40.5679 39.2576 40.7198C39.1072 40.7615 38.9565 40.8025 38.8056 40.8429C38.5976 40.8979 38.3893 40.9525 38.1812 41.0067C38.1384 40.9665 38.0953 40.9264 38.0521 40.8866C37.5237 40.3993 36.9723 39.938 36.3992 39.5057C35.4732 38.8075 34.4903 38.1854 33.4595 37.6584C33.0197 37.4335 32.5712 37.2278 32.1157 37.038C32.0408 37.0074 31.9657 36.977 31.8905 36.9469C32.2693 36.7623 32.6441 36.5701 33.014 36.3679C33.9825 35.8388 34.9195 35.2508 35.8259 34.6191C36.8625 33.8967 37.8599 33.1168 38.8196 32.2926C39.0445 32.0993 39.2672 31.9034 39.4879 31.7054ZM3.20813 38.7405C1.90147 37.2034 0.8408 35.1201 0 33.0269C1.30387 31.3523 2.91133 29.6861 4.69107 28.6454L4.6768 28.5881C4.07667 26.1569 3.92893 23.2259 4.00867 20.3304C4.79573 19.9422 5.6224 19.5929 6.47533 19.3013C7.87987 18.8267 9.33547 18.528 10.7475 18.5533C10.5916 19.4292 10.4761 20.3126 10.4344 21.202C10.424 21.4221 10.4181 21.6426 10.4172 21.863C10.4164 22.0606 10.4201 22.2581 10.4248 22.4557C10.4323 22.7772 10.4447 23.0987 10.4621 23.4198C10.5289 24.6494 10.672 25.8742 10.9049 27.0829C10.9297 27.2091 10.9553 27.3352 10.9817 27.461C10.6517 27.4343 10.3211 27.4183 9.99 27.4154C9.29653 27.409 8.60267 27.4565 7.91613 27.5559C7.68347 27.5896 7.4516 27.6293 7.2208 27.6748C7.0876 27.7011 6.95453 27.7285 6.8224 27.7604C6.67627 27.7956 6.53147 27.8361 6.388 27.8812C6.0216 27.9963 5.6648 28.142 5.31893 28.3096C5.15333 28.3898 4.99067 28.4758 4.8296 28.5648C4.76013 28.604 4.76027 28.604 4.69107 28.6435C4.86027 29.3082 5.0672 29.9628 5.33507 30.5939C5.41227 30.7757 5.49427 30.9553 5.58173 31.1324C5.64747 31.2654 5.71627 31.3969 5.78587 31.5279C5.89347 31.7301 6.00453 31.9306 6.11893 32.129C6.45 32.7026 6.81013 33.2592 7.19973 33.7937C7.3992 34.0673 7.6072 34.334 7.8212 34.596C7.87573 34.6616 7.92587 34.7227 7.9812 34.7875C7.6984 34.9297 7.4192 35.0786 7.1452 35.2374C6.5684 35.5719 6.01347 35.945 5.4844 36.3522C5.30453 36.4908 5.1276 36.6332 4.95373 36.7796C4.85307 36.8642 4.75307 36.9496 4.6556 37.0379C4.5476 37.1359 4.4424 37.2369 4.34 37.3408C3.972 37.714 3.6424 38.1227 3.3388 38.5509C3.2948 38.6138 3.2512 38.677 3.20813 38.7405ZM13.7216 34.052C14.5017 35.1292 15.4081 36.0069 16.416 36.6403C15.2373 36.7815 14.0591 37.1742 12.9335 37.7721L12.4529 37.535L12.3856 37.5013L12.3185 37.467C11.9779 37.2895 11.646 37.0962 11.3244 36.8853C10.5131 36.3526 9.7692 35.7184 9.0944 35.0179L9.1456 34.9968C9.45573 34.8695 9.76987 34.7526 10.0885 34.6489C10.818 34.4118 11.5692 34.2402 12.3301 34.1476C12.5007 34.1268 12.6721 34.1149 12.8433 34.1027C12.9632 34.0946 13.0832 34.0871 13.2032 34.0801L13.7216 34.052ZM30.1497 32.0209L30.9188 31.883C31.1944 31.8342 31.4703 31.7864 31.7465 31.7411C31.9613 31.7058 32.1764 31.6715 32.392 31.642C32.6088 31.6121 32.8267 31.5883 33.0444 31.5661C34.8877 31.3794 36.7505 31.4028 38.5919 31.6018L38.5167 31.6671C38.0956 32.0302 37.6689 32.3864 37.2337 32.7321C36.028 33.6898 34.7641 34.5751 33.4383 35.3539C32.9555 35.6375 32.4641 35.9053 31.9653 36.1589C31.8848 36.1993 31.8043 36.2394 31.7235 36.2793L31.0109 36.6266C29.3377 36.0705 27.6705 35.8195 26.0897 35.8818C27.5071 34.919 28.8799 33.6165 30.1497 32.0209ZM10.7475 18.5533C11.3377 15.2472 12.6912 11.5342 14.3107 7.90731C16.964 8.25799 19.7629 9.11416 21.9156 10.9171C24.4013 7.22296 27.9436 3.50239 31.792 -6.10352e-05C34.02 2.70425 35.9679 6.09305 36.6659 10.0045C39.4237 8.40026 42.5304 7.06585 45.8056 5.95375C47.9617 5.22176 50.1863 4.58708 52.4267 4.03353C52.1495 9.10498 51.1995 14.4907 49.0271 19.326C54.1469 19.4328 59.3056 20.9547 64 23.0253C60.2511 27.9034 56.0457 32.4705 51.5856 35.7196L51.5276 35.6712L51.4693 35.6232C51.1385 35.3527 50.7993 35.0929 50.45 34.8473C49.832 34.4128 49.1847 34.0211 48.512 33.6798C48.2633 33.5536 48.0112 33.4341 47.7561 33.3219C47.5111 33.2144 47.2629 33.1138 47.0143 33.0151C46.5187 32.8185 46.0183 32.6338 45.5139 32.4614C44.4549 32.0997 43.3779 31.7921 42.2879 31.5417C41.7956 31.4286 41.3007 31.3281 40.8039 31.2378C40.6904 31.2176 40.5769 31.1979 40.4635 31.1786C40.3503 31.1597 40.2372 31.1413 40.1239 31.1234L40.2184 31.0347C40.6665 30.6119 41.1071 30.1812 41.5388 29.7413C42.5445 28.7162 43.5041 27.6448 44.4179 26.5349C44.8503 26.0097 45.2723 25.4757 45.684 24.9338C45.8783 24.6781 46.0711 24.4212 46.2588 24.1606C46.4569 23.8854 46.6495 23.6061 46.8365 23.3232C47.3485 22.5488 47.8193 21.7468 48.2505 20.9235C48.4673 20.5097 48.6733 20.0904 48.8711 19.667C48.9236 19.5536 48.9756 19.4398 49.0271 19.326L48.9372 19.3243L48.8475 19.3228C48.3699 19.3162 47.8923 19.3206 47.4149 19.3394C46.4957 19.3753 45.5784 19.4612 44.6691 19.6014C44.3179 19.6557 43.968 19.7179 43.6197 19.7885C43.3008 19.8531 42.9833 19.9249 42.6663 19.9985C42.0771 20.1354 41.4903 20.2833 40.9064 20.4423C39.7405 20.7599 38.5865 21.1221 37.4489 21.5313C36.924 21.7203 36.4031 21.9199 35.8855 22.1283C35.7683 22.176 35.6513 22.2239 35.5344 22.2722C35.4185 22.3207 35.3028 22.3693 35.1872 22.4184L35.2243 22.3053C35.3973 21.7724 35.5597 21.2363 35.7091 20.6961C36.0583 19.4328 36.3403 18.1504 36.554 16.8565C36.6425 16.3204 36.7193 15.7826 36.7844 15.2432C36.8167 14.9751 36.8472 14.7066 36.8709 14.4376C36.8953 14.1612 36.9127 13.8841 36.9229 13.6067C36.9512 12.8395 36.9252 12.0705 36.8479 11.3069C36.806 10.8947 36.7485 10.4843 36.6784 10.0762C36.6743 10.0523 36.67 10.0284 36.6659 10.0045C36.3003 10.2196 35.9373 10.439 35.5788 10.6659C34.8513 11.1263 34.1404 11.614 33.4531 12.1339C33.128 12.3799 32.8083 12.6329 32.4948 12.8939C32.2685 13.082 32.0464 13.2752 31.8247 13.4687C31.4817 13.768 31.1424 14.0716 30.8069 14.3796C29.8493 15.2587 28.9231 16.1732 28.0349 17.1245C27.6441 17.5432 27.2613 17.9695 26.8855 18.4021C26.7812 18.5229 26.6773 18.6441 26.5739 18.7657C26.472 18.8863 26.3707 19.0072 26.2699 19.1286L26.2477 19.0376C26.1429 18.6128 26.028 18.1907 25.9003 17.7724C25.6079 16.8146 25.2529 15.8761 24.834 14.9675C24.6637 14.5982 24.4829 14.2341 24.2913 13.8757C24.1976 13.7002 24.1023 13.5256 24.0013 13.3544C23.9084 13.1969 23.8108 13.0422 23.7085 12.8906C23.4175 12.459 23.0893 12.0531 22.7304 11.6773C22.5223 11.4594 22.3037 11.2525 22.0771 11.0545C22.0236 11.0082 21.9697 10.9624 21.9156 10.9171C21.7156 11.2165 21.5189 11.5179 21.3281 11.8232C20.9061 12.4984 20.5093 13.19 20.1468 13.8999C19.9935 14.2002 19.8463 14.5036 19.7061 14.8104C19.6028 15.0365 19.5033 15.2645 19.4049 15.4929C19.2557 15.8394 19.1107 16.1878 18.9701 16.5379C18.5827 17.5034 18.2289 18.483 17.9145 19.4753C17.7813 19.8955 17.6559 20.3181 17.5368 20.7426C17.5013 20.8702 17.4664 20.998 17.432 21.1259C17.4068 21.221 17.3816 21.316 17.3571 21.4112C17.3489 21.4428 17.3327 21.506 17.3327 21.506L17.2779 21.4591C17.0028 21.2259 16.7208 21.0013 16.4304 20.7879C15.8676 20.3743 15.2759 20.0008 14.6603 19.6731C14.34 19.5025 14.0132 19.3443 13.6808 19.1992C13.5269 19.1319 13.372 19.0662 13.2148 19.0069C13.0692 18.9519 12.9215 18.9022 12.7724 18.8577C12.3643 18.7358 11.9451 18.653 11.5223 18.6047C11.3224 18.5819 11.122 18.5677 10.9211 18.5585C10.8344 18.5554 10.8341 18.5556 10.7475 18.5533ZM13.28 33.4001C12.9744 33.4167 12.6684 33.4342 12.3639 33.465C12.1809 33.4835 11.9987 33.5097 11.8171 33.5386C10.9544 33.6761 10.1068 33.9068 9.2888 34.2158C9.06253 34.3011 8.83867 34.3929 8.6172 34.49L8.47987 34.3394C8.27453 34.0952 8.0748 33.8465 7.88293 33.5912C7.4768 33.0509 7.10293 32.4857 6.76067 31.9019C6.62667 31.6734 6.49733 31.4419 6.37293 31.208C6.2572 30.9904 6.14547 30.7712 6.04373 30.5466C5.81493 30.0419 5.6272 29.5173 5.47413 28.9841L5.47653 28.9829C5.8756 28.783 6.28773 28.6106 6.71627 28.4862C6.944 28.42 7.17587 28.3703 7.40853 28.3255C7.668 28.2756 7.92893 28.2335 8.19093 28.1992C8.76573 28.124 9.34533 28.0873 9.9248 28.0897C10.2005 28.0909 10.476 28.1017 10.7512 28.1201C10.8807 28.1295 11.0103 28.1395 11.1397 28.1501C11.1699 28.2756 11.2012 28.4008 11.2337 28.526C11.5637 29.7944 12.0083 31.0366 12.6007 32.2044C12.7813 32.5604 12.9767 32.9081 13.1849 33.2482C13.2164 33.2988 13.2481 33.3495 13.28 33.4001C13.2623 33.3724 13.2275 33.3762 13.1797 33.4035L13.28 33.4001ZM14.0739 33.4043L13.7953 32.963C13.6113 32.667 13.4376 32.3648 13.2759 32.0555C12.8528 31.2463 12.5061 30.3973 12.2221 29.5286C12.084 29.1061 11.9596 28.6786 11.8509 28.2475L11.8943 28.2545C12.1241 28.2934 12.3532 28.3373 12.5808 28.3886C13.0571 28.4961 13.5271 28.6329 13.9865 28.7993C14.4376 28.9625 14.8785 29.1543 15.3053 29.3745C15.5039 29.4768 15.6987 29.586 15.8909 29.6998C15.9624 29.7428 15.9623 29.7427 16.0335 29.7864L16.5221 30.0913C16.6845 31.6605 17.0569 33.0682 17.6313 34.2646C16.5461 33.7413 15.3403 33.4584 14.0739 33.4043ZM26.5269 28.5171L27.2241 27.9331C27.5779 27.64 27.9377 27.3549 28.3053 27.0798C29.2908 26.342 30.3239 25.6699 31.3885 25.0554C31.9349 24.7401 32.49 24.44 33.0521 24.1543C33.2931 24.0318 33.5356 23.9125 33.7789 23.7948C33.8633 23.7544 33.9477 23.7141 34.0323 23.674C33.5333 24.9741 32.9576 26.2445 32.3087 27.475C31.7493 28.5356 31.1361 29.57 30.4331 30.5399C30.3649 30.6322 30.3651 30.6322 30.2961 30.7241L29.74 31.4557C27.8845 31.9212 26.2165 32.611 24.7945 33.5C25.5932 32.0273 26.1785 30.3409 26.5269 28.5171ZM17.1493 29.7312L17.1163 29.1158C17.1028 28.8352 17.0944 28.5545 17.0928 28.2734C17.0879 27.4047 17.1405 26.536 17.2368 25.6729C17.3452 24.7011 17.5092 23.7358 17.7172 22.7808L17.7256 22.7893C17.9405 23.0075 18.1497 23.231 18.3513 23.4618C18.7289 23.8944 19.0812 24.3498 19.4053 24.825C19.7261 25.2954 20.0195 25.7852 20.2825 26.2911C20.4207 26.557 20.5495 26.8277 20.6715 27.1014L20.9695 27.7833C20.3051 29.4967 19.9145 31.138 19.8139 32.6574C19.1449 31.5239 18.2352 30.5358 17.1493 29.7312ZM21.6391 27.7241L21.9664 27.1397L22.0396 27.0077C22.386 26.3795 22.7319 25.7511 23.0876 25.1283C23.5019 24.403 23.9275 23.6844 24.3701 22.9767C24.8501 22.2095 25.3507 21.4553 25.8819 20.7232C25.8968 20.7028 25.9117 20.6823 25.9267 20.6619L25.9284 20.6723C26.1131 21.7705 26.2025 22.8846 26.226 23.9978C26.2361 24.4859 26.2329 24.9744 26.2141 25.4623C26.1931 26.0079 26.1515 26.5523 26.0808 27.0937C26.0737 27.1442 26.0668 27.1948 26.0595 27.2453C26.012 27.5606 25.9617 27.8755 25.9107 28.1903C24.4699 29.5132 23.3067 30.9096 22.4568 32.3298C22.4664 30.7919 22.1868 29.2306 21.6391 27.7241ZM30.7551 31.2269C30.852 31.0995 30.9476 30.9717 31.0411 30.8417C31.3816 30.3686 31.6992 29.8785 32.0013 29.3794C32.3432 28.8148 32.6651 28.2379 32.9705 27.6523C33.638 26.3725 34.2299 25.0508 34.7375 23.6979C34.7901 23.5574 34.8417 23.4165 34.8924 23.2751L35.5592 22.9924L35.6732 22.9444C36.2149 22.7185 36.7607 22.5026 37.3109 22.2991C38.634 21.8097 39.9805 21.3857 41.3428 21.0231C41.8767 20.8811 42.4129 20.7485 42.9513 20.6249C43.1892 20.5704 43.4272 20.517 43.6661 20.4676C43.9195 20.4152 44.1737 20.3673 44.4288 20.3239C45.5988 20.1248 46.7849 20.0182 47.9712 19.9986L47.9513 20.0387C47.4259 21.0949 46.8395 22.1196 46.1825 23.0978C46.032 23.3221 45.8779 23.5439 45.72 23.7629C45.5357 24.019 45.3463 24.2713 45.1556 24.5223C44.8065 24.9818 44.4499 25.4355 44.0857 25.8828C43.1308 27.0563 42.1241 28.1869 41.0657 29.2658C40.6703 29.6688 40.2671 30.0639 39.8577 30.4524C39.6627 30.6365 39.4672 30.8199 39.2716 31.0033C38.9263 30.9586 38.5801 30.9197 38.2333 30.8874C36.4113 30.7179 34.5713 30.7171 32.7517 30.9186C32.6019 30.9352 32.452 30.9526 32.3025 30.9732C31.9915 31.0158 31.6816 31.0675 31.3719 31.1195C31.1663 31.1546 30.9604 31.1902 30.7551 31.2269ZM11.6799 27.5395L11.6183 27.2465L11.6032 27.1735C11.3664 26.0068 11.2175 24.8238 11.1425 23.6353C11.1175 23.2372 11.1005 22.8386 11.0912 22.4397C11.0836 22.1086 11.0808 21.7775 11.0917 21.4463C11.1123 20.8239 11.1731 20.2042 11.2571 19.5875C11.2725 19.4784 11.2885 19.3695 11.3052 19.2606C11.776 19.3067 12.242 19.3946 12.6933 19.5389C12.94 19.6176 13.1795 19.7152 13.4168 19.8188C13.6703 19.9295 13.9203 20.0482 14.1665 20.1745C14.7384 20.4677 15.2893 20.8023 15.8153 21.1731C16.078 21.3583 16.3336 21.5531 16.5837 21.7551C16.6549 21.8132 16.7257 21.8718 16.796 21.9309C16.9161 22.0326 17.0359 22.135 17.1555 22.2374C17.1303 22.3461 17.1057 22.4549 17.0817 22.5638C16.8791 23.4853 16.7161 24.416 16.6027 25.3531C16.4988 26.2119 16.4364 27.0763 16.4271 27.9415C16.4231 28.3089 16.4299 28.6761 16.4453 29.0431C16.4488 29.1146 16.4524 29.186 16.4563 29.2574C16.1797 29.0848 15.8975 28.9224 15.608 28.773C14.9407 28.4288 14.2408 28.1502 13.522 27.9373C12.9933 27.7808 12.4545 27.6597 11.9103 27.5736C11.8336 27.5614 11.7568 27.5501 11.6799 27.5395ZM26.6992 27.4719L26.7028 27.4495C26.8036 26.8008 26.8549 26.1448 26.8803 25.4888C26.9069 24.7988 26.9037 24.1074 26.8747 23.4177C26.8448 22.7101 26.7879 22.0034 26.6965 21.3012C26.6371 20.8444 26.5632 20.3891 26.4676 19.9387L26.8547 19.4732L26.9292 19.3839C27.2865 18.959 27.6507 18.5402 28.0228 18.1285C28.9297 17.1257 29.8803 16.1636 30.8659 15.2402C31.3231 14.8118 31.788 14.3917 32.2599 13.9799C32.4353 13.8268 32.6108 13.6738 32.7887 13.5237C33.0048 13.3413 33.2239 13.1627 33.4459 12.9879C33.9891 12.5603 34.5489 12.1546 35.1213 11.7681C35.438 11.5542 35.7589 11.3471 36.0823 11.1437C36.1063 11.1289 36.1303 11.1139 36.1543 11.099L36.162 11.1654C36.1987 11.4934 36.2271 11.8221 36.2447 12.1517C36.274 12.6999 36.2749 13.2497 36.2472 13.7981C36.2361 14.0158 36.2205 14.2333 36.2004 14.4503C36.1783 14.6877 36.1511 14.9248 36.1225 15.1615C36.0685 15.6098 36.0063 16.0572 35.9356 16.5032C35.7339 17.7771 35.4648 19.0402 35.1296 20.2849C34.9763 20.855 34.8079 21.4205 34.6275 21.9823C34.5412 22.2478 34.4541 22.513 34.3669 22.7783C34.1244 22.8875 33.8831 22.9991 33.6429 23.1133C31.8947 23.9456 30.2037 24.908 28.6163 26.024C28.1068 26.3821 27.6097 26.7572 27.1236 27.1472C27.0513 27.2057 26.9792 27.2646 26.9073 27.3236C26.8363 27.3824 26.7653 27.4415 26.6945 27.5008C26.7021 27.4943 26.7033 27.4846 26.6992 27.4719ZM17.8913 22.0127L18.002 21.5821C18.1088 21.1715 18.2219 20.7625 18.3424 20.3558C18.6485 19.3232 18.9993 18.3044 19.3875 17.3005C19.5736 16.8189 19.7685 16.3408 19.9716 15.8662C20.1739 15.3931 20.3835 14.9234 20.6119 14.4626C21.0423 13.5944 21.5273 12.7558 22.0463 11.939L22.0777 11.9699C22.2181 12.1096 22.3545 12.2534 22.4857 12.402C22.7503 12.7021 22.994 13.0206 23.214 13.3554C23.3925 13.6269 23.5517 13.91 23.7051 14.1968C23.8617 14.4901 24.0112 14.7875 24.1532 15.0885C24.5928 16.02 24.9623 16.9854 25.2633 17.9718C25.3785 18.3488 25.4829 18.729 25.5788 19.1116C25.6347 19.3374 25.6896 19.5633 25.7443 19.7893C25.2227 20.4688 24.7351 21.1749 24.2676 21.8933C23.4817 23.101 22.7549 24.3463 22.0513 25.6045C21.8075 26.0432 21.5673 26.484 21.322 26.9219C21.1541 26.5377 20.9728 26.1602 20.7744 25.7913C20.3403 24.9842 19.8323 24.2181 19.2604 23.5046C18.9044 23.0602 18.5236 22.6363 18.1205 22.2354C18.0449 22.1603 17.9685 22.0861 17.8913 22.0127Z" fill="white" fill-opacity="0.66"/>
</svg>
